{
  "accessors": [
    {
      "bufferView": 3,
      "componentType": 5126,
      "count": 7620,
      "max": [
        380,
        970.00006103515625,
        400
      ],
      "min": [
        -380,
        -5.1616070223308927e-21,
        -400
      ],
      "type": "VEC3"
    },
    {
      "bufferView": 3,
      "byteOffset": 91440,
      "componentType": 5126,
      "count": 7620,
      "max": [
        1,
        1,
        1
      ],
      "min": [
        -1,
        -1,
        -1
      ],
      "type": "VEC3"
    },
    {
      "bufferView": 4,
      "componentType": 5126,
      "count": 7620,
      "max": [
        0,
        1,
        0,
        1
      ],
      "min": [
        -1,
        0,
        -1.3234889800848443e-23,
        -1
      ],
      "type": "VEC4"
    },
    {
      "bufferView": 2,
      "componentType": 5126,
      "count": 7620,
      "max": [
        0.99609375,
        0.9921875
      ],
      "min": [
        0.00390625,
        0.0078125
      ],
      "type": "VEC2"
    },
    {
      "bufferView": 1,
      "componentType": 5125,
      "count": 11430,
      "max": [
        7619
      ],
      "min": [
        0
      ],
      "type": "SCALAR"
    },
    {
      "bufferView": 5,
      "componentType": 5126,
      "count": 3,
      "max": [
        1,
        0,
        0,
        0,
        0,
        1,
        0,
        0,
        0,
        1.0000001192092896,
        1,
        0,
        0,
        7.0333480834960938e-05,
        590.0001220703125,
        1
      ],
      "min": [
        1,
        0,
        0,
        0,
        0,
        -1.1920928955078125e-07,
        -1.0000001192092896,
        0,
        0,
        0,
        -1.1920928955078125e-07,
        0,
        0,
        -174.99992370605469,
        0,
        1
      ],
      "type": "MAT4"
    },
    {
      "bufferView": 0,
      "componentType": 5123,
      "count": 7620,
      "max": [
        2,
        1,
        1,
        1
      ],
      "min": [
        1,
        1,
        1,
        1
      ],
      "type": "VEC4"
    },
    {
      "bufferView": 4,
      "byteOffset": 121920,
      "componentType": 5126,
      "count": 7620,
      "max": [
        1,
        0,
        0,
        0
      ],
      "min": [
        1,
        0,
        0,
        0
      ],
      "type": "VEC4"
    },
    {
      "bufferView": 6,
      "componentType": 5126,
      "count": 601,
      "max": [
        10
      ],
      "min": [
        0
      ],
      "type": "SCALAR"
    },
    {
      "bufferView": 7,
      "componentType": 5126,
      "count": 601,
      "max": [
        6.0910887008330485e-17,
        1,
        2.1974317670267197e-17,
        1
      ],
      "min": [
        -6.1232342629258393e-17,
        -0.86339551210403442,
        -6.1232342629258393e-17,
        -0.5
      ],
      "type": "VEC4"
    }
  ],
  "animations": [
    {
      "channels": [
        {
          "sampler": 0,
          "target": {
            "node": 17,
            "path": "rotation"
          }
        }
      ],
      "name": "Windmill",
      "samplers": [
        {
          "input": 8,
          "interpolation": "LINEAR",
          "output": 9
        }
      ]
    }
  ],
  "asset": {
    "extras": {
      "author": "danidesa (https://sketchfab.com/danidesa)",
      "license": "CC-BY-4.0 (http://creativecommons.org/licenses/by/4.0/)",
      "source": "https://sketchfab.com/3d-models/low-poly-windmill-f9dafdc464b043e5b738289006dd6509",
      "title": "Low Poly Windmill"
    },
    "generator": "Sketchfab-6.61.0",
    "version": "2.0"
  },
  "bufferViews": [
    {
      "buffer": 0,
      "byteLength": 60960,
      "byteOffset": 0,
      "byteStride": 8,
      "name": "shortBufferViews",
      "target": 34962
    },
    {
      "buffer": 0,
      "byteLength": 45720,
      "byteOffset": 60960,
      "name": "floatBufferViews",
      "target": 34963
    },
    {
      "buffer": 0,
      "byteLength": 60960,
      "byteOffset": 106680,
      "byteStride": 8,
      "name": "floatBufferViews",
      "target": 34962
    },
    {
      "buffer": 0,
      "byteLength": 182880,
      "byteOffset": 167640,
      "byteStride": 12,
      "name": "floatBufferViews",
      "target": 34962
    },
    {
      "buffer": 0,
      "byteLength": 243840,
      "byteOffset": 350520,
      "byteStride": 16,
      "name": "floatBufferViews",
      "target": 34962
    },
    {
      "buffer": 0,
      "byteLength": 192,
      "byteOffset": 594360,
      "byteStride": 64,
      "name": "floatBufferViews"
    },
    {
      "buffer": 0,
      "byteLength": 2404,
      "byteOffset": 594552,
      "name": "floatBufferViews"
    },
    {
      "buffer": 0,
      "byteLength": 9616,
      "byteOffset": 596956,
      "byteStride": 16,
      "name": "floatBufferViews"
    }
  ],
  "buffers": [
    {
      "byteLength": 606572,
      "uri": "scene.bin"
    }
  ],
  "images": [
    {
      "uri": "textures/Standard_baseColor.png"
    }
  ],
  "materials": [
    {
      "doubleSided": true,
      "emissiveFactor": [
        0,
        0,
        0
      ],
      "name": "Standard",
      "pbrMetallicRoughness": {
        "baseColorFactor": [
          1,
          1,
          1,
          1
        ],
        "baseColorTexture": {
          "index": 0,
          "texCoord": 0
        },
        "metallicFactor": 0,
        "roughnessFactor": 0.66025152440000001
      }
    }
  ],
  "meshes": [
    {
      "name": "Windmill_Standard_0",
      "primitives": [
        {
          "attributes": {
            "JOINTS_0": 6,
            "NORMAL": 1,
            "POSITION": 0,
            "TANGENT": 2,
            "TEXCOORD_0": 3,
            "WEIGHTS_0": 7
          },
          "indices": 4,
          "material": 0,
          "mode": 4
        }
      ]
    }
  ],
  "nodes": [
    {
      "children": [
        1
      ],
      "name": "RootNode (gltf orientation matrix)",
      "rotation": [
        -0.70710678118654746,
        -0,
        -0,
        0.70710678118654757
      ]
    },
    {
      "children": [
        2
      ],
      "name": "RootNode (model correction matrix)"
    },
    {
      "children": [
        3
      ],
      "matrix": [
        1,
        0,
        0,
        0,
        0,
        0,
        1,
        0,
        0,
        -1,
        0,
        0,
        0,
        0,
        0,
        1
      ],
      "name": "WindmillScene.fbx"
    },
    {
      "children": [
        4
      ],
      "name": ""
    },
    {
      "children": [
        5
      ],
      "name": "RootNode"
    },
    {
      "children": [
        6,
        8,
        11
      ],
      "name": "WindmillScene"
    },
    {
      "children": [
        7
      ],
      "name": "Main_Camera",
      "rotation": [
        -0.092870503664016724,
        0.46289509534835815,
        -0.17340566217899323,
        0.8643110990524292
      ],
      "translation": [
        -1163.7137451171875,
        1263.2010498046875,
        1749.109619140625
      ]
    },
    {
      "name": ""
    },
    {
      "children": [
        9
      ],
      "name": "Directional_Light",
      "rotation": [
        0.45421877503395081,
        0.22841750085353851,
        -0.12170752882957458,
        0.85246586799621582
      ],
      "translation": [
        0,
        300,
        0
      ]
    },
    {
      "children": [
        10
      ],
      "matrix": [
        1,
        0,
        0,
        0,
        0,
        2.2204460492503131e-16,
        1,
        0,
        0,
        -1,
        2.2204460492503131e-16,
        0,
        0,
        0,
        0,
        1
      ],
      "name": ""
    },
    {
      "name": ""
    },
    {
      "children": [
        12
      ],
      "name": "Windmill"
    },
    {
      "children": [
        13,
        15,
        14
      ],
      "name": ""
    },
    {
      "children": [
        16
      ],
      "name": "_rootJoint"
    },
    {
      "matrix": [
        1,
        0,
        0,
        0,
        0,
        1,
        -1.3234889800848443e-23,
        0,
        0,
        1.3234889800848443e-23,
        1,
        0,
        0,
        0,
        0,
        1
      ],
      "name": ""
    },
    {
      "mesh": 0,
      "name": "",
      "skin": 0
    },
    {
      "children": [
        17
      ],
      "name": "Root_00",
      "rotation": [
        0.7071068286895752,
        0,
        0,
        0.70710670948028564
      ],
      "scale": [
        1,
        0.99999988079071045,
        0.99999988079071045
      ],
      "translation": [
        0,
        590,
        0
      ]
    },
    {
      "name": "Bone_01",
      "rotation": [
        -1.7006833394090249e-21,
        -0,
        0,
        1
      ],
      "translation": [
        0,
        175,
        -4.3511390686035156e-05
      ]
    }
  ],
  "samplers": [
    {
      "magFilter": 9729,
      "minFilter": 9987,
      "wrapS": 10497,
      "wrapT": 10497
    }
  ],
  "scene": 0,
  "scenes": [
    {
      "name": "OSG_Scene",
      "nodes": [
        0
      ]
    }
  ],
  "skins": [
    {
      "inverseBindMatrices": 5,
      "joints": [
        13,
        16,
        17
      ],
      "skeleton": 13
    }
  ],
  "textures": [
    {
      "sampler": 0,
      "source": 0
    }
  ]
}

